<?xml version="1.0" encoding="UTF-8"?>
<svg id="Livello_1" data-name="Livello 1" xmlns="http://www.w3.org/2000/svg" viewBox="0 0 830.44 711.66">
  <defs>
    <style>
      .cls-1 {
        fill: #00aad3;
      }

      .cls-2 {
        fill: #db292d;
      }

      .cls-3 {
        fill: #122648;
      }

      .cls-4 {
        fill: none;
        stroke: #122648;
        stroke-width: 3px;
      }
    </style>
  </defs>
  <path class="cls-4" d="M803.51,164.82c-23.11-20.13-55.17-24.35-71.57-26.59-16.4-2.24-22.45-1.74-30.07-8.03-7.62-6.3-12.59-15.57-24.68-16.73,0,0,8.28-9.94-37.27-33.46-45.56-23.52-88.96-43.24-139.65-62.95C462.06,2.2,429.14,1.17,415.22,1.56c-13.91-.4-46.84,.63-85.04,15.49-50.69,19.71-94.1,39.43-139.65,62.95-45.56,23.52-37.27,33.46-37.27,33.46-12.09,1.16-17.06,10.44-24.68,16.73-7.62,6.3-13.67,5.8-30.07,8.03-16.4,2.24-48.46,6.46-71.57,26.59C3.83,184.95,1.34,386.98,1.51,436.18c.17,49.2,12.26,112.98,18.33,135.62,6.07,22.64,5.85,34.24,42.85,41.86,37,7.62,35.78,9.28,79.52,20.54,43.74,11.27,58.31,16.79,95.64,44.95,37.33,28.16,57.98,29.93,72.56,30.37,14.58,.44,18.66-7.29,20.43-11.6,1.77-4.31-1.44-12.37,11.15-10.93,12.59,1.44,29.49,8.72,46.83,16.57,17.27,7.81,26.32,6.53,26.39,6.52,.07,.01,9.12,1.29,26.39-6.52,17.34-7.84,34.24-15.13,46.83-16.57,12.59-1.44,9.39,6.63,11.15,10.93,1.77,4.31,5.85,12.04,20.43,11.6,14.58-.44,35.23-2.21,72.56-30.37,37.33-28.16,51.91-33.68,95.64-44.95,43.74-11.27,42.52-12.92,79.52-20.54,37-7.62,36.78-19.22,42.85-41.86,6.07-22.64,18.17-86.42,18.33-135.62,.17-49.2-2.32-251.23-25.43-271.36Z"/>
  <path class="cls-3" d="M779.67,176.55c-21.69-18.89-51.78-22.86-67.17-24.96-15.39-2.1-21.07-1.63-28.22-7.54-7.15-5.91-11.82-14.62-23.17-15.7,0,0,7.77-9.33-34.99-31.41-42.76-22.08-83.5-40.58-131.08-59.09-35.85-13.94-66.76-14.91-79.82-14.54-13.06-.37-43.97,.59-79.82,14.54-47.58,18.5-88.32,37.01-131.08,59.09-42.76,22.08-34.99,31.41-34.99,31.41-11.35,1.09-16.02,9.8-23.17,15.7-7.15,5.91-12.83,5.44-28.22,7.54-15.39,2.1-45.48,6.06-67.17,24.96-21.69,18.89-24.02,208.52-23.87,254.7,.16,46.18,11.51,106.05,17.21,127.3,5.7,21.25,5.49,32.14,40.22,39.29,34.73,7.15,33.59,8.71,74.64,19.28,41.05,10.57,54.73,15.76,89.77,42.19s54.42,28.09,68.11,28.51c13.68,.41,17.52-6.84,19.18-10.88,1.66-4.04-1.35-11.61,10.47-10.26,11.82,1.35,27.68,8.19,43.95,15.55,16.21,7.33,24.7,6.13,24.77,6.12,.07,0,8.56,1.21,24.77-6.12,16.28-7.36,32.14-14.2,43.95-15.55,11.82-1.35,8.81,6.22,10.47,10.26,1.66,4.04,5.49,11.3,19.18,10.88,13.68-.41,33.07-2.07,68.11-28.51s48.72-31.62,89.77-42.19c41.05-10.57,39.91-12.13,74.64-19.28,34.73-7.15,34.52-18.04,40.22-39.29,5.7-21.25,17.05-81.12,17.21-127.3,.16-46.18-2.18-235.81-23.87-254.7Z"/>
  <g>
    <path class="cls-2" d="M495.23,371.78c-.02-3.8-.02-7.6-.04-11.41-.03-6.51-.06-13.02-.09-19.53-.01-2.51,0-5.03-.01-7.54-.02-5.06-.07-10.12-.08-15.18,0-2.96,.06-5.93,.08-8.89,0-.52-.03-1.05-.04-1.57-.04-1.54-.07-3.08-.11-4.62-.06-2.5-.27-4.99-.97-7.41-1.06-3.65-3.1-6.59-6.24-8.71-.88-.59-1.81-1.08-2.87-1.25-.55-.09-1.12-.1-1.68-.16-.16-.02-.31-.05-.47-.08h-.89c-.33,.05-.67,.07-1,.14-2.13,.43-3.96,1.43-5.51,2.98-2.06,2.05-3.34,4.54-4.13,7.32-.53,1.88-.79,3.8-.79,5.76,0,5.58,0,11.17-.02,16.75,0,3.28-.04,6.56-.06,9.83-.01,1.99,0,3.98-.02,5.97-.02,1.68-.1,3.35-.1,5.03,0,1.55,.06,3.11,.06,4.66,0,6.21-.03,12.43-.04,18.64,0,2.26,0,4.52-.01,6.78,0,3.83-.02,7.67-.03,11.5-.01,4.34-.02,8.68-.04,13.02,0,.21,.08,.46-.22,.64-.16-.2-.34-.39-.49-.61-2.12-3.14-4.22-6.29-6.34-9.43-1.44-2.13-2.87-4.26-4.31-6.39-5.43-8.05-10.86-16.1-16.29-24.16-3.05-4.54-6.11-9.08-9.16-13.61-5.17-7.7-10.35-15.39-15.53-23.08-1.86-2.76-3.83-5.43-5.71-8.17-3.81-5.57-7.59-11.17-11.4-16.75-.72-1.06-1.47-2.1-2.27-3.1-1.15-1.43-2.56-2.51-4.29-3.15-1.28-.47-2.6-.53-3.93-.51-1.37,.02-2.64,.37-3.86,1.01-2.18,1.13-3.88,2.75-5.1,4.9-.95,1.66-1.78,3.37-2.17,5.26-.01,.06-.03,.12-.04,.19-.14,.72-.19,1.46-.29,2.19-.01,.09,0,.18-.02,.27-.04,.13-.08,.26-.11,.4-.25,2.36-.26,4.37-.26,4.37,0,0,0,0,0,0,0,3.47,0,6.94,0,10.41,.63,.89,1.26,1.78,1.88,2.68,7.54,11.03,15.05,22.08,22.58,33.11,0-1.63,0-3.27,0-4.9,0-.15,.02-.29,.03-.46,.37-.04,.56,.21,.77,.4,.12,.11,.2,.26,.29,.4,2.01,3.02,4,6.04,6.02,9.05l6.91,10.13c.1,.09,.18,.18,.25,.29,1.2,1.79,2.4,3.58,3.6,5.37l.43,.63s0,0,0,0c.98,1.46,1.95,2.91,2.93,4.37,3.08,4.6,6.16,9.21,9.25,13.82,1.39,2.07,2.78,4.14,4.17,6.21,1.13,1.68,2.28,3.35,3.33,5.09,.44,.73,.96,1.4,1.43,2.11,.88,1.31,1.76,2.62,2.64,3.93,4.58,6.77,9.17,13.55,13.75,20.32,4.76,7.04,9.53,14.08,14.29,21.12,.35,.52,.72,1.03,1.09,1.53,1.01,1.36,2.27,2.43,3.7,3.31,1.17,.71,2.42,1.17,3.78,1.33,.13,.02,.25,.06,.38,.09h1.24c.39-.07,.78-.15,1.17-.22,2.34-.47,4.29-1.62,5.92-3.37,.5-.53,.95-1.09,1.36-1.66,.07-.13,.14-.26,.23-.4,1.66-2.74,2.54-6.27,2.99-9.5,0-.04,0-.08,0-.12,0-.24,.03-.48,.11-.7,.16-1.31,.25-2.56,.3-3.67,0-.37,0-.73,0-1.1,0-.67,0-1.34,0-2.02h0v-4.26c-.01-.07-.01-.14-.01-.22,0-2.71,.01-5.42,.02-8.13,0-1.08,.02-2.16,.02-3.23,.02-6.68,.03-13.35,.05-20.03,0-3.56,.01-7.13,.02-10.69,0-.16,.04-.32,.06-.48v-12.4c-.02-.14-.06-.29-.06-.43Z"/>
    <path class="cls-2" d="M402.8,399.58c-.87-1.36-1.78-2.68-2.69-4.01-4.55-6.66-9.07-13.35-13.6-20.02-.99-1.46-1.98-2.91-2.96-4.37,0,0,0,0,0,0l-.43-.63c-1.22-1.79-2.43-3.58-3.65-5.37-.07-.1-.16-.2-.26-.29l-.89-1.29c0,20.06,0,40.12,0,60.17,0,4.3,.01,8.59,.03,12.89,0,1.09-.02,2.19,.08,3.27,.36,4.01,1.64,7.65,4.4,10.64,1.51,1.64,3.3,2.85,5.48,3.39,1.96,.49,3.87,.36,5.78-.37,2.16-.83,3.87-2.21,5.23-4.07,1.89-2.6,3.06-5.49,3.32-8.72,.12-1.44,.15-2.9,.16-4.35,.02-5.24,.01-10.48,.01-15.72,0-7.05,0-14.11,0-21.16Z"/>
  </g>
  <g>
    <path class="cls-1" d="M458.33,371.14c-.02-3.8-.02-7.6-.04-11.41-.03-6.51-.06-13.02-.09-19.53-.01-2.51,0-5.03-.01-7.54-.03-5.06-.07-10.12-.08-15.18,0-2.96,.06-5.93,.08-8.89,0-.52-.03-1.05-.04-1.57-.04-1.54-.07-3.08-.11-4.62-.06-2.5-.28-4.99-.99-7.41-1.08-3.65-3.14-6.59-6.33-8.71-.89-.59-1.83-1.08-2.9-1.25-.56-.09-1.13-.1-1.7-.16-.16-.02-.32-.05-.48-.08h-.9c-.34,.05-.68,.07-1.01,.14-2.16,.43-4.01,1.43-5.58,2.98-2.08,2.05-3.39,4.54-4.19,7.32-.54,1.88-.8,3.8-.8,5.76,0,5.58,0,11.17-.02,16.75,0,3.28-.05,6.56-.06,9.83-.01,1.99,0,3.98-.02,5.97-.02,1.68-.1,3.35-.11,5.03,0,.35,0,.7,0,1.04,3.05,4.54,6.1,9.08,9.16,13.61,5.42,8.06,10.86,16.11,16.29,24.16v-5.82c-.02-.14-.06-.29-.06-.43Z"/>
    <path class="cls-1" d="M458.23,426.74c-.01-.07-.01-.14-.01-.22v-.14c-4.58-6.77-9.17-13.55-13.75-20.32-.89-1.31-1.76-2.62-2.64-3.93-.48-.7-.99-1.38-1.43-2.11-1.05-1.74-2.19-3.41-3.33-5.09-1.39-2.07-2.78-4.14-4.17-6.21,0,1.48,0,2.97-.02,4.45,0,.21,.08,.46-.23,.64-.17-.2-.35-.39-.5-.61-2.14-3.14-4.28-6.29-6.42-9.43-6.96-10.18-13.92-20.36-20.87-30.55-.81-1.19-1.63-2.39-2.44-3.58-7.53-11.04-15.04-22.08-22.58-33.11-.62-.9-1.25-1.79-1.88-2.68-1.3-1.83-2.63-3.64-3.91-5.49-3.86-5.57-7.69-11.17-11.55-16.75-.73-1.06-1.49-2.1-2.3-3.1-1.16-1.43-2.6-2.51-4.35-3.15-1.29-.47-2.63-.53-3.98-.51-1.39,.02-2.68,.37-3.91,1.01-2.21,1.13-3.93,2.75-5.17,4.9-.96,1.66-1.8,3.37-2.2,5.26-.01,.06-.03,.12-.04,.19-.14,.72-.2,1.46-.29,2.19-.01,.09,0,.18-.02,.27-.04,.13-.08,.26-.11,.4-.25,2.36-.26,4.37-.26,4.37,0,0,0,0,0,0,0,39.91,0,79.81,0,119.72,0,4.3,.01,8.59,.03,12.89,0,1.09-.02,2.19,.08,3.27,.36,4.01,1.66,7.65,4.46,10.64,1.53,1.64,3.35,2.85,5.55,3.39,1.99,.49,3.93,.36,5.86-.37,2.19-.83,3.92-2.21,5.3-4.07,1.92-2.6,3.1-5.49,3.37-8.72,.12-1.44,.15-2.9,.16-4.35,.02-5.24,.01-10.48,.01-15.72,0-20.05,0-40.09,0-60.14,0-3.25-.02-6.5-.03-9.75,0-1.83,0-3.65,0-5.48,0-.15,.02-.29,.03-.46,.38-.04,.57,.21,.78,.4,.12,.11,.2,.26,.29,.4,2.03,3.02,4.06,6.04,6.1,9.05l6.11,8.84,.89,1.29c.1,.09,.19,.18,.26,.29,1.22,1.79,2.44,3.58,3.65,5.37l.43,.63s0,0,0,0c.99,1.46,1.98,2.91,2.96,4.37,4.53,6.68,9.05,13.36,13.6,20.02,.91,1.33,1.82,2.66,2.69,4.01,.23,.36,.46,.72,.68,1.08,.44,.73,.97,1.4,1.45,2.11,.9,1.31,1.78,2.62,2.68,3.93,9.47,13.82,18.94,27.63,28.41,41.44,.36,.52,.73,1.03,1.11,1.53,1.02,1.36,2.3,2.43,3.75,3.31,1.18,.71,2.46,1.17,3.83,1.33,.13,.02,.26,.06,.39,.09h1.26c.39-.07,.79-.15,1.18-.22,2.37-.47,4.35-1.62,6-3.37,.5-.53,.96-1.09,1.38-1.66,.07-.13,.15-.26,.23-.4,1.68-2.74,2.57-6.27,3.03-9.5,0-.04,0-.08,0-.12,0-.24,.03-.48,.11-.7,.16-1.31,.25-2.56,.31-3.67,0-.37,0-.73,0-1.1,0-.67,0-1.34,0-2.02h0v-4.26Z"/>
  </g>
</svg>