<?xml version="1.0" encoding="utf-8"?>
<!-- Generator: Adobe Illustrator 26.4.1, SVG Export Plug-In . SVG Version: 6.00 Build 0)  -->
<svg version="1.1" id="Livello_1" xmlns="http://www.w3.org/2000/svg" xmlns:xlink="http://www.w3.org/1999/xlink" x="0px" y="0px"
	 viewBox="0 0 1230.1 940.5" style="enable-background:new 0 0 1230.1 940.5;" xml:space="preserve">
<style type="text/css">
	.st0{fill:none;stroke:#122648;stroke-width:3;}
	.st1{fill:#122648;}
	.st2{fill:#DB292D;}
	.st3{fill:#00AAD3;}
	.st4{font-family:'ArialRoundedMTBold';}
	.st5{font-size:133.36px;}
	.st6{letter-spacing:-1;}
</style>
<path class="st0" d="M1003.8,178.1c-23.1-20.1-55.2-24.4-71.6-26.6c-16.4-2.2-22.4-1.7-30.1-8c-7.6-6.3-12.6-15.6-24.7-16.7
	c0,0,8.3-9.9-37.3-33.5c-45.6-23.5-89-43.2-139.7-62.9c-38.2-14.9-71.1-15.9-85-15.5c-13.9-0.4-46.8,0.6-85,15.5
	c-50.7,19.7-94.1,39.4-139.6,62.9c-45.6,23.5-37.3,33.5-37.3,33.5c-12.1,1.2-17.1,10.4-24.7,16.7c-7.6,6.3-13.7,5.8-30.1,8
	c-16.4,2.2-48.5,6.5-71.6,26.6c-23.1,20.1-25.6,222.1-25.4,271.4c0.2,49.2,12.3,113,18.3,135.6c6.1,22.6,5.9,34.2,42.9,41.9
	s35.8,9.3,79.5,20.5c43.7,11.3,58.3,16.8,95.6,45c37.3,28.2,58,29.9,72.6,30.4c14.6,0.4,18.7-7.3,20.4-11.6s-1.4-12.4,11.2-10.9
	s29.5,8.7,46.8,16.6c17.3,7.8,26.3,6.5,26.4,6.5c0.1,0,9.1,1.3,26.4-6.5c17.3-7.8,34.2-15.1,46.8-16.6s9.4,6.6,11.2,10.9
	c1.8,4.3,5.8,12,20.4,11.6s35.2-2.2,72.6-30.4s51.9-33.7,95.6-45c43.7-11.3,42.5-12.9,79.5-20.5s36.8-19.2,42.8-41.9
	s18.2-86.4,18.3-135.6C1029.4,400.3,1026.9,198.3,1003.8,178.1L1003.8,178.1z"/>
<path class="st1" d="M980,189.9c-21.7-18.9-51.8-22.9-67.2-25s-21.1-1.6-28.2-7.5c-7.2-5.9-11.8-14.6-23.2-15.7c0,0,7.8-9.3-35-31.4
	s-83.5-40.6-131.1-59.1c-35.8-13.9-66.8-14.9-79.8-14.5c-13.1-0.4-44,0.6-79.8,14.5c-47.6,18.5-88.3,37-131.1,59.1s-35,31.4-35,31.4
	c-11.3,1.1-16,9.8-23.2,15.7c-7.2,5.9-12.8,5.4-28.2,7.5c-15.4,2.1-45.5,6.1-67.2,25c-21.7,18.9-24,208.5-23.9,254.7
	c0.2,46.2,11.5,106.1,17.2,127.3c5.7,21.2,5.5,32.1,40.2,39.3c34.7,7.2,33.6,8.7,74.6,19.3s54.7,15.8,89.8,42.2s54.4,28.1,68.1,28.5
	c13.7,0.4,17.5-6.8,19.2-10.9s-1.3-11.6,10.5-10.3c11.8,1.3,27.7,8.2,44,15.5c16.2,7.3,24.7,6.1,24.8,6.1c0.1,0,8.6,1.2,24.8-6.1
	c16.3-7.4,32.1-14.2,44-15.5c11.8-1.3,8.8,6.2,10.5,10.3c1.7,4,5.5,11.3,19.2,10.9c13.7-0.4,33.1-2.1,68.1-28.5s48.7-31.6,89.8-42.2
	c41.1-10.6,39.9-12.1,74.6-19.3s34.5-18,40.2-39.3s17.1-81.1,17.2-127.3C1004,398.4,1001.7,208.8,980,189.9L980,189.9z"/>
<g>
	<path class="st2" d="M695.6,385.1c0-3.8,0-7.6,0-11.4c0-6.5-0.1-13-0.1-19.5c0-2.5,0-5,0-7.5c0-5.1-0.1-10.1-0.1-15.2
		c0-3,0.1-5.9,0.1-8.9c0-0.5,0-1,0-1.6c0-1.5-0.1-3.1-0.1-4.6c-0.1-2.5-0.3-5-1-7.4c-1.1-3.6-3.1-6.6-6.2-8.7
		c-0.9-0.6-1.8-1.1-2.9-1.2c-0.5-0.1-1.1-0.1-1.7-0.2c-0.2,0-0.3,0-0.5-0.1h-0.9c-0.3,0-0.7,0.1-1,0.1c-2.1,0.4-4,1.4-5.5,3
		c-2.1,2-3.3,4.5-4.1,7.3c-0.5,1.9-0.8,3.8-0.8,5.8c0,5.6,0,11.2,0,16.8c0,3.3,0,6.6-0.1,9.8c0,2,0,4,0,6c0,1.7-0.1,3.4-0.1,5
		c0,1.5,0.1,3.1,0.1,4.7c0,6.2,0,12.4,0,18.6c0,2.3,0,4.5,0,6.8c0,3.8,0,7.7,0,11.5c0,4.3,0,8.7,0,13c0,0.2,0.1,0.5-0.2,0.6
		c-0.2-0.2-0.3-0.4-0.5-0.6c-2.1-3.1-4.2-6.3-6.3-9.4c-1.4-2.1-2.9-4.3-4.3-6.4c-5.4-8-10.9-16.1-16.3-24.2c-3-4.5-6.1-9.1-9.2-13.6
		c-5.2-7.7-10.3-15.4-15.5-23.1c-1.9-2.8-3.8-5.4-5.7-8.2c-3.8-5.6-7.6-11.2-11.4-16.8c-0.7-1.1-1.5-2.1-2.3-3.1
		c-1.2-1.4-2.6-2.5-4.3-3.1c-1.3-0.5-2.6-0.5-3.9-0.5c-1.4,0-2.6,0.4-3.9,1c-2.2,1.1-3.9,2.8-5.1,4.9c-1,1.7-1.8,3.4-2.2,5.3
		c0,0.1,0,0.1,0,0.2c-0.1,0.7-0.2,1.5-0.3,2.2c0,0.1,0,0.2,0,0.3c0,0.1-0.1,0.3-0.1,0.4c-0.2,2.4-0.3,4.4-0.3,4.4l0,0
		c0,3.5,0,6.9,0,10.4c0.6,0.9,1.3,1.8,1.9,2.7c7.5,11,15,22.1,22.6,33.1c0-1.6,0-3.3,0-4.9c0-0.1,0-0.3,0-0.5c0.4,0,0.6,0.2,0.8,0.4
		c0.1,0.1,0.2,0.3,0.3,0.4c2,3,4,6,6,9l6.9,10.1c0.1,0.1,0.2,0.2,0.2,0.3c1.2,1.8,2.4,3.6,3.6,5.4l0.4,0.6l0,0c1,1.5,2,2.9,2.9,4.4
		c3.1,4.6,6.2,9.2,9.2,13.8c1.4,2.1,2.8,4.1,4.2,6.2c1.1,1.7,2.3,3.4,3.3,5.1c0.4,0.7,1,1.4,1.4,2.1c0.9,1.3,1.8,2.6,2.6,3.9
		c4.6,6.8,9.2,13.5,13.8,20.3c4.8,7,9.5,14.1,14.3,21.1c0.3,0.5,0.7,1,1.1,1.5c1,1.4,2.3,2.4,3.7,3.3c1.2,0.7,2.4,1.2,3.8,1.3
		c0.1,0,0.2,0.1,0.4,0.1h1.2c0.4-0.1,0.8-0.1,1.2-0.2c2.3-0.5,4.3-1.6,5.9-3.4c0.5-0.5,1-1.1,1.4-1.7c0.1-0.1,0.1-0.3,0.2-0.4
		c1.7-2.7,2.5-6.3,3-9.5c0,0,0-0.1,0-0.1c0-0.2,0-0.5,0.1-0.7c0.2-1.3,0.2-2.6,0.3-3.7c0-0.4,0-0.7,0-1.1c0-0.7,0-1.3,0-2l0,0v-4.3
		c0-0.1,0-0.1,0-0.2c0-2.7,0-5.4,0-8.1c0-1.1,0-2.2,0-3.2c0-6.7,0-13.4,0-20c0-3.6,0-7.1,0-10.7c0-0.2,0-0.3,0.1-0.5v-12.4
		C695.6,385.4,695.6,385.2,695.6,385.1L695.6,385.1z"/>
	<path class="st2" d="M603.1,412.9c-0.9-1.4-1.8-2.7-2.7-4c-4.5-6.7-9.1-13.4-13.6-20c-1-1.5-2-2.9-3-4.4l0,0l-0.4-0.6
		c-1.2-1.8-2.4-3.6-3.7-5.4c-0.1-0.1-0.2-0.2-0.3-0.3l-0.9-1.3c0,20.1,0,40.1,0,60.2c0,4.3,0,8.6,0,12.9c0,1.1,0,2.2,0.1,3.3
		c0.4,4,1.6,7.6,4.4,10.6c1.5,1.6,3.3,2.9,5.5,3.4c2,0.5,3.9,0.4,5.8-0.4c2.2-0.8,3.9-2.2,5.2-4.1c1.9-2.6,3.1-5.5,3.3-8.7
		c0.1-1.4,0.2-2.9,0.2-4.4c0-5.2,0-10.5,0-15.7C603.1,427,603.1,419.9,603.1,412.9L603.1,412.9z"/>
</g>
<g>
	<path class="st3" d="M658.7,384.5c0-3.8,0-7.6,0-11.4c0-6.5-0.1-13-0.1-19.5c0-2.5,0-5,0-7.5c0-5.1-0.1-10.1-0.1-15.2
		c0-3,0.1-5.9,0.1-8.9c0-0.5,0-1,0-1.6c0-1.5-0.1-3.1-0.1-4.6c-0.1-2.5-0.3-5-1-7.4c-1.1-3.6-3.1-6.6-6.3-8.7
		c-0.9-0.6-1.8-1.1-2.9-1.2c-0.6-0.1-1.1-0.1-1.7-0.2c-0.2,0-0.3,0-0.5-0.1h-0.9c-0.3,0-0.7,0.1-1,0.1c-2.2,0.4-4,1.4-5.6,3
		c-2.1,2-3.4,4.5-4.2,7.3c-0.5,1.9-0.8,3.8-0.8,5.8c0,5.6,0,11.2,0,16.8c0,3.3,0,6.6-0.1,9.8c0,2,0,4,0,6c0,1.7-0.1,3.4-0.1,5
		c0,0.4,0,0.7,0,1c3,4.5,6.1,9.1,9.2,13.6c5.4,8.1,10.9,16.1,16.3,24.2v-5.8C658.7,384.7,658.7,384.6,658.7,384.5L658.7,384.5z"/>
	<path class="st3" d="M658.6,440.1c0-0.1,0-0.1,0-0.2v-0.1c-4.6-6.8-9.2-13.5-13.8-20.3c-0.9-1.3-1.8-2.6-2.6-3.9
		c-0.5-0.7-1-1.4-1.4-2.1c-1-1.7-2.2-3.4-3.3-5.1c-1.4-2.1-2.8-4.1-4.2-6.2c0,1.5,0,3,0,4.5c0,0.2,0.1,0.5-0.2,0.6
		c-0.2-0.2-0.3-0.4-0.5-0.6c-2.1-3.1-4.3-6.3-6.4-9.4c-7-10.2-13.9-20.4-20.9-30.5c-0.8-1.2-1.6-2.4-2.4-3.6
		c-7.5-11-15-22.1-22.6-33.1c-0.6-0.9-1.2-1.8-1.9-2.7c-1.3-1.8-2.6-3.6-3.9-5.5c-3.9-5.6-7.7-11.2-11.5-16.8
		c-0.7-1.1-1.5-2.1-2.3-3.1c-1.2-1.4-2.6-2.5-4.3-3.1c-1.3-0.5-2.6-0.5-4-0.5c-1.4,0-2.7,0.4-3.9,1c-2.2,1.1-3.9,2.8-5.2,4.9
		c-1,1.7-1.8,3.4-2.2,5.3c0,0.1,0,0.1,0,0.2c-0.1,0.7-0.2,1.5-0.3,2.2c0,0.1,0,0.2,0,0.3c0,0.1-0.1,0.3-0.1,0.4
		c-0.2,2.4-0.3,4.4-0.3,4.4l0,0c0,39.9,0,79.8,0,119.7c0,4.3,0,8.6,0,12.9c0,1.1,0,2.2,0.1,3.3c0.4,4,1.7,7.6,4.5,10.6
		c1.5,1.6,3.3,2.9,5.5,3.4c2,0.5,3.9,0.4,5.9-0.4c2.2-0.8,3.9-2.2,5.3-4.1c1.9-2.6,3.1-5.5,3.4-8.7c0.1-1.4,0.2-2.9,0.2-4.4
		c0-5.2,0-10.5,0-15.7c0-20,0-40.1,0-60.1c0-3.2,0-6.5,0-9.8c0-1.8,0-3.6,0-5.5c0-0.1,0-0.3,0-0.5c0.4,0,0.6,0.2,0.8,0.4
		c0.1,0.1,0.2,0.3,0.3,0.4c2,3,4.1,6,6.1,9l6.1,8.8l0.9,1.3c0.1,0.1,0.2,0.2,0.3,0.3c1.2,1.8,2.4,3.6,3.7,5.4l0.4,0.6l0,0
		c1,1.5,2,2.9,3,4.4c4.5,6.7,9,13.4,13.6,20c0.9,1.3,1.8,2.7,2.7,4c0.2,0.4,0.5,0.7,0.7,1.1c0.4,0.7,1,1.4,1.5,2.1
		c0.9,1.3,1.8,2.6,2.7,3.9c9.5,13.8,18.9,27.6,28.4,41.4c0.4,0.5,0.7,1,1.1,1.5c1,1.4,2.3,2.4,3.8,3.3c1.2,0.7,2.5,1.2,3.8,1.3
		c0.1,0,0.3,0.1,0.4,0.1h1.3c0.4-0.1,0.8-0.1,1.2-0.2c2.4-0.5,4.3-1.6,6-3.4c0.5-0.5,1-1.1,1.4-1.7c0.1-0.1,0.2-0.3,0.2-0.4
		c1.7-2.7,2.6-6.3,3-9.5c0,0,0-0.1,0-0.1c0-0.2,0-0.5,0.1-0.7c0.2-1.3,0.2-2.6,0.3-3.7c0-0.4,0-0.7,0-1.1c0-0.7,0-1.3,0-2l0,0
		L658.6,440.1L658.6,440.1z"/>
</g>
<text transform="matrix(1 0 0 1 200.8063 925.6924)" class="st3 st4 st5 st6">NA</text>
<text transform="matrix(1 0 0 1 394.5363 925.6924)" class="st3 st4 st5">O </text>
<text transform="matrix(1 0 0 1 533.4963 925.6924)" class="st2 st4 st5">NEXUS</text>
</svg>
