<?xml version="1.0" encoding="UTF-8"?>
<svg id="Livello_1" data-name="Livello 1" xmlns="http://www.w3.org/2000/svg" viewBox="0 0 706.03 143.73">
  <defs>
    <style>
      .cls-1, .cls-2, .cls-3 {
        fill: #00aad3;
      }

      .cls-4, .cls-5 {
        fill: #db292d;
      }

      .cls-6 {
        fill: #122648;
      }

      .cls-7 {
        fill: none;
        stroke: #122648;
        stroke-width: 2px;
      }

      .cls-5, .cls-2 {
        letter-spacing: -.03em;
      }

      .cls-8 {
        font-family: ArialRoundedMTBold, 'Arial Rounded MT Bold';
        font-size: 91.11px;
      }

      .cls-3 {
        letter-spacing: -.04em;
      }
    </style>
  </defs>
  <path class="cls-7" d="M161.4,33.66c-4.62-4.03-11.03-4.87-14.31-5.32-3.28-.45-4.49-.35-6.01-1.61-1.52-1.26-2.52-3.11-4.94-3.35,0,0,1.66-1.99-7.45-6.69-9.11-4.7-17.79-8.65-27.93-12.59-7.64-2.97-14.22-3.18-17.01-3.1-2.78-.08-9.37,.13-17.01,3.1-10.14,3.94-18.82,7.89-27.93,12.59-9.11,4.7-7.45,6.69-7.45,6.69-2.42,.23-3.41,2.09-4.94,3.35s-2.73,1.16-6.01,1.61c-3.28,.45-9.69,1.29-14.31,5.32C1.47,37.69,.97,78.1,1,87.94c.03,9.84,2.45,22.6,3.67,27.12s1.17,6.85,8.57,8.37c7.4,1.52,7.16,1.86,15.9,4.11s11.66,3.36,19.13,8.99c7.47,5.63,11.6,5.99,14.51,6.07,2.92,.09,3.73-1.46,4.09-2.32,.35-.86-.29-2.47,2.23-2.19,2.52,.29,5.9,1.74,9.37,3.31,3.45,1.56,5.26,1.31,5.28,1.3,.01,0,1.82,.26,5.28-1.3,3.47-1.57,6.85-3.03,9.37-3.31,2.52-.29,1.88,1.33,2.23,2.19,.35,.86,1.17,2.41,4.09,2.32,2.92-.09,7.05-.44,14.51-6.07s10.38-6.74,19.13-8.99c8.75-2.25,8.5-2.58,15.9-4.11,7.4-1.52,7.36-3.84,8.57-8.37,1.21-4.53,3.63-17.28,3.67-27.12,.03-9.84-.46-50.25-5.09-54.27Z"/>
  <path class="cls-6" d="M156.63,36.01c-4.34-3.78-10.36-4.57-13.43-4.99-3.08-.42-4.21-.33-5.64-1.51-1.43-1.18-2.36-2.92-4.63-3.14,0,0,1.55-1.87-7-6.28-8.55-4.42-16.7-8.12-26.22-11.82-7.17-2.79-13.35-2.98-15.96-2.91-2.61-.07-8.79,.12-15.96,2.91-9.52,3.7-17.66,7.4-26.22,11.82-8.55,4.42-7,6.28-7,6.28-2.27,.22-3.2,1.96-4.63,3.14s-2.57,1.09-5.64,1.51c-3.08,.42-9.1,1.21-13.43,4.99-4.34,3.78-4.8,41.7-4.77,50.94,.03,9.24,2.3,21.21,3.44,25.46s1.1,6.43,8.04,7.86c6.95,1.43,6.72,1.74,14.93,3.86s10.95,3.15,17.95,8.44,10.88,5.62,13.62,5.7c2.74,.08,3.5-1.37,3.84-2.18,.33-.81-.27-2.32,2.09-2.05,2.36,.27,5.54,1.64,8.79,3.11,3.24,1.47,4.94,1.23,4.95,1.22,.01,0,1.71,.24,4.95-1.22,3.26-1.47,6.43-2.84,8.79-3.11,2.36-.27,1.76,1.24,2.09,2.05,.33,.81,1.1,2.26,3.84,2.18,2.74-.08,6.61-.41,13.62-5.7s9.74-6.32,17.95-8.44c8.21-2.11,7.98-2.43,14.93-3.86,6.95-1.43,6.9-3.61,8.04-7.86,1.14-4.25,3.41-16.22,3.44-25.46,.03-9.24-.44-47.16-4.77-50.94Z"/>
  <g>
    <path class="cls-4" d="M98.52,75.06c0-.76,0-1.52,0-2.28,0-1.3-.01-2.6-.02-3.91,0-.5,0-1.01,0-1.51,0-1.01-.01-2.02-.02-3.04,0-.59,.01-1.19,.02-1.78,0-.1,0-.21,0-.31,0-.31-.01-.62-.02-.92-.01-.5-.05-1-.19-1.48-.21-.73-.62-1.32-1.25-1.74-.18-.12-.36-.22-.57-.25-.11-.02-.22-.02-.34-.03-.03,0-.06-.01-.09-.02h-.18c-.07,0-.13,.01-.2,.03-.43,.09-.79,.29-1.1,.6-.41,.41-.67,.91-.83,1.46-.11,.38-.16,.76-.16,1.15,0,1.12,0,2.23,0,3.35,0,.66,0,1.31-.01,1.97,0,.4,0,.8,0,1.19,0,.34-.02,.67-.02,1.01,0,.31,.01,.62,.01,.93,0,1.24,0,2.49,0,3.73,0,.45,0,.9,0,1.36,0,.77,0,1.53,0,2.3,0,.87,0,1.74,0,2.6,0,.04,.02,.09-.04,.13-.03-.04-.07-.08-.1-.12-.42-.63-.84-1.26-1.27-1.89-.29-.43-.57-.85-.86-1.28-1.09-1.61-2.17-3.22-3.26-4.83-.61-.91-1.22-1.82-1.83-2.72-1.03-1.54-2.07-3.08-3.11-4.62-.37-.55-.77-1.09-1.14-1.63-.76-1.11-1.52-2.23-2.28-3.35-.14-.21-.29-.42-.45-.62-.23-.29-.51-.5-.86-.63-.26-.09-.52-.11-.79-.1-.27,0-.53,.07-.77,.2-.44,.23-.78,.55-1.02,.98-.19,.33-.36,.67-.43,1.05,0,.01,0,.02,0,.04-.03,.14-.04,.29-.06,.44,0,.02,0,.04,0,.05,0,.03-.02,.05-.02,.08-.05,.47-.05,.87-.05,.87,0,0,0,0,0,0,0,.69,0,1.39,0,2.08,.13,.18,.25,.36,.38,.54,1.51,2.21,3.01,4.42,4.52,6.62,0-.33,0-.65,0-.98,0-.03,0-.06,0-.09,.07,0,.11,.04,.15,.08,.02,.02,.04,.05,.06,.08,.4,.6,.8,1.21,1.2,1.81l1.38,2.03s.04,.04,.05,.06c.24,.36,.48,.72,.72,1.07l.09,.13s0,0,0,0c.2,.29,.39,.58,.59,.87,.62,.92,1.23,1.84,1.85,2.76,.28,.41,.56,.83,.83,1.24,.23,.34,.46,.67,.67,1.02,.09,.15,.19,.28,.29,.42,.18,.26,.35,.52,.53,.79,.92,1.35,1.83,2.71,2.75,4.06,.95,1.41,1.91,2.82,2.86,4.22,.07,.1,.14,.21,.22,.31,.2,.27,.45,.49,.74,.66,.23,.14,.48,.23,.76,.27,.03,0,.05,.01,.08,.02h.25c.08-.01,.16-.03,.23-.04,.47-.09,.86-.32,1.18-.67,.1-.11,.19-.22,.27-.33,.01-.03,.03-.05,.05-.08,.33-.55,.51-1.25,.6-1.9,0,0,0-.02,0-.02,0-.05,0-.1,.02-.14,.03-.26,.05-.51,.06-.73,0-.07,0-.15,0-.22,0-.13,0-.27,0-.4h0v-.85s0-.03,0-.04c0-.54,0-1.08,0-1.63,0-.22,0-.43,0-.65,0-1.34,0-2.67,0-4.01,0-.71,0-1.43,0-2.14,0-.03,0-.06,.01-.1v-2.48s-.01-.06-.01-.09Z"/>
    <path class="cls-4" d="M80.04,80.62c-.17-.27-.36-.54-.54-.8-.91-1.33-1.81-2.67-2.72-4-.2-.29-.4-.58-.59-.87,0,0,0,0,0,0l-.09-.13c-.24-.36-.49-.72-.73-1.07-.01-.02-.03-.04-.05-.06l-.18-.26c0,4.01,0,8.02,0,12.03,0,.86,0,1.72,0,2.58,0,.22,0,.44,.02,.65,.07,.8,.33,1.53,.88,2.13,.3,.33,.66,.57,1.1,.68,.39,.1,.77,.07,1.16-.07,.43-.17,.77-.44,1.05-.81,.38-.52,.61-1.1,.66-1.74,.02-.29,.03-.58,.03-.87,0-1.05,0-2.1,0-3.14,0-1.41,0-2.82,0-4.23Z"/>
  </g>
  <g>
    <path class="cls-1" d="M91.14,74.93c0-.76,0-1.52,0-2.28,0-1.3-.01-2.6-.02-3.91,0-.5,0-1.01,0-1.51,0-1.01-.01-2.02-.02-3.04,0-.59,.01-1.19,.02-1.78,0-.1,0-.21,0-.31,0-.31-.01-.62-.02-.92-.01-.5-.06-1-.2-1.48-.22-.73-.63-1.32-1.27-1.74-.18-.12-.37-.22-.58-.25-.11-.02-.23-.02-.34-.03-.03,0-.06-.01-.1-.02h-.18c-.07,0-.14,.01-.2,.03-.43,.09-.8,.29-1.12,.6-.42,.41-.68,.91-.84,1.46-.11,.38-.16,.76-.16,1.15,0,1.12,0,2.23,0,3.35,0,.66,0,1.31-.01,1.97,0,.4,0,.8,0,1.19,0,.34-.02,.67-.02,1.01,0,.07,0,.14,0,.21,.61,.91,1.22,1.82,1.83,2.72,1.08,1.61,2.17,3.22,3.26,4.83v-1.16s-.01-.06-.01-.09Z"/>
    <path class="cls-1" d="M91.12,86.05s0-.03,0-.04v-.03c-.92-1.35-1.83-2.71-2.75-4.06-.18-.26-.35-.52-.53-.79-.1-.14-.2-.28-.29-.42-.21-.35-.44-.68-.67-1.02-.28-.41-.56-.83-.83-1.24,0,.3,0,.59,0,.89,0,.04,.02,.09-.05,.13-.03-.04-.07-.08-.1-.12-.43-.63-.86-1.26-1.28-1.89-1.39-2.04-2.78-4.07-4.17-6.11-.16-.24-.33-.48-.49-.72-1.51-2.21-3.01-4.42-4.52-6.62-.12-.18-.25-.36-.38-.54-.26-.37-.53-.73-.78-1.1-.77-1.11-1.54-2.23-2.31-3.35-.15-.21-.3-.42-.46-.62-.23-.29-.52-.5-.87-.63-.26-.09-.53-.11-.8-.1-.28,0-.54,.07-.78,.2-.44,.23-.79,.55-1.03,.98-.19,.33-.36,.67-.44,1.05,0,.01,0,.02,0,.04-.03,.14-.04,.29-.06,.44,0,.02,0,.04,0,.05,0,.03-.02,.05-.02,.08-.05,.47-.05,.87-.05,.87,0,0,0,0,0,0,0,7.98,0,15.96,0,23.94,0,.86,0,1.72,0,2.58,0,.22,0,.44,.02,.65,.07,.8,.33,1.53,.89,2.13,.31,.33,.67,.57,1.11,.68,.4,.1,.79,.07,1.17-.07,.44-.17,.78-.44,1.06-.81,.38-.52,.62-1.1,.67-1.74,.02-.29,.03-.58,.03-.87,0-1.05,0-2.1,0-3.14,0-4.01,0-8.02,0-12.03,0-.65,0-1.3,0-1.95,0-.37,0-.73,0-1.1,0-.03,0-.06,0-.09,.08,0,.11,.04,.16,.08,.02,.02,.04,.05,.06,.08,.41,.6,.81,1.21,1.22,1.81l1.22,1.77,.18,.26s.04,.04,.05,.06c.24,.36,.49,.72,.73,1.07l.09,.13s0,0,0,0c.2,.29,.4,.58,.59,.87,.91,1.34,1.81,2.67,2.72,4,.18,.27,.36,.53,.54,.8,.05,.07,.09,.14,.14,.22,.09,.15,.19,.28,.29,.42,.18,.26,.36,.52,.54,.79,1.89,2.76,3.79,5.53,5.68,8.29,.07,.1,.15,.21,.22,.31,.2,.27,.46,.49,.75,.66,.24,.14,.49,.23,.77,.27,.03,0,.05,.01,.08,.02h.25c.08-.01,.16-.03,.24-.04,.47-.09,.87-.32,1.2-.67,.1-.11,.19-.22,.28-.33,.01-.03,.03-.05,.05-.08,.34-.55,.51-1.25,.61-1.9,0,0,0-.02,0-.02,0-.05,0-.1,.02-.14,.03-.26,.05-.51,.06-.73,0-.07,0-.15,0-.22,0-.13,0-.27,0-.4h0v-.85Z"/>
  </g>
  <text class="cls-8" transform="translate(184.25 105.72)"><tspan class="cls-3" x="0" y="0">NA</tspan><tspan class="cls-2" x="127.79" y="0">O </tspan><tspan class="cls-5" x="218.17" y="0">NEXUS</tspan></text>
</svg>